<svg width="84" height="84" viewBox="0 0 84 84" fill="none" xmlns="http://www.w3.org/2000/svg">
<rect y="41.7192" width="59" height="59" transform="rotate(-45 0 41.7192)" fill="white"/>
<path d="M50.75 31.7192H33.25L28 37.9115L42 54.7192L56 37.9115L50.75 31.7192ZM36.12 37.0269H31.0625L33.7225 33.8777L36.12 37.0269ZM39.235 37.0269L42 33.7715L44.765 37.0269H39.235ZM45.5 38.7962L42 50.6146L38.5 38.7962H45.5ZM37.205 38.7962L40.5125 50.19L31.0275 38.7962H37.205ZM46.8125 38.7962H52.99L43.4875 50.19L46.8125 38.7962ZM47.8975 37.0269L50.295 33.8777L52.9375 37.0269H47.8625H47.8975ZM49 33.4885L46.48 36.6908L43.925 33.4885H49ZM37.5025 36.7262L35 33.4885H40.075L37.5025 36.7262Z" fill="#978A7F"/>
</svg>
