<svg width="141" height="41" viewBox="0 0 141 41" fill="none" xmlns="http://www.w3.org/2000/svg">
<path d="M87.2513 12.0047L76.8345 0.24121C76.8303 0.236511 76.8258 0.232595 76.8216 0.228131C76.8084 0.213982 76.7953 0.199964 76.7812 0.186859C76.7721 0.17848 76.7625 0.171118 76.7532 0.163208C76.7434 0.155037 76.7339 0.146527 76.7237 0.138826C76.7134 0.131021 76.7026 0.124129 76.6919 0.117003C76.6821 0.110346 76.6724 0.103427 76.6624 0.0972406C76.6519 0.0910537 76.6412 0.0856506 76.6305 0.080012C76.6195 0.0740339 76.6088 0.0679251 76.5975 0.0626519C76.5875 0.0579269 76.5773 0.0542719 76.5671 0.0501212C76.5548 0.0450568 76.5426 0.0397839 76.5299 0.0354244C76.5202 0.0320829 76.5104 0.0296808 76.5006 0.0269136C76.4874 0.023024 76.4742 0.018874 76.4607 0.0158719C76.45 0.0134702 76.4391 0.0121911 76.4284 0.0103638C76.4156 0.00817096 76.403 0.00553418 76.39 0.00415061C76.3724 0.00206221 76.3548 0.00161794 76.3373 0.00104363C76.331 0.000913102 76.3249 0 76.3186 0H57.1464C57.1381 0 57.13 0.00114806 57.1217 0.00138301C57.1063 0.00195732 57.0907 0.00229721 57.0753 0.00404625C57.0613 0.00566476 57.0476 0.00840524 57.0339 0.010833C57.0241 0.0125559 57.0144 0.0137052 57.0048 0.0158719C56.9903 0.0191089 56.9763 0.0234678 56.9621 0.0275924C56.9533 0.0301246 56.9443 0.0322915 56.9356 0.0352674C56.9219 0.0399924 56.9087 0.0456051 56.8955 0.0511393C56.8863 0.0549507 56.8772 0.0581618 56.8681 0.0624169C56.8557 0.0682644 56.8437 0.0749208 56.8316 0.0816037C56.8221 0.0866681 56.8127 0.0913675 56.8033 0.0968757C56.7916 0.104002 56.7804 0.111938 56.7691 0.119744C56.76 0.125931 56.7508 0.1317 56.7421 0.138356C56.7295 0.14778 56.7177 0.158118 56.7058 0.168351C56.6987 0.174434 56.6914 0.179942 56.6845 0.186389C56.6656 0.203854 56.6476 0.222127 56.6304 0.24155L46.2136 12.0047C46.2092 12.0097 46.2054 12.0152 46.2012 12.0203C46.189 12.0348 46.1768 12.0492 46.1655 12.0648C46.1575 12.0758 46.1505 12.0874 46.143 12.0986C46.1363 12.109 46.1293 12.1189 46.123 12.1294C46.1155 12.1422 46.1089 12.1554 46.102 12.1685C46.0968 12.1785 46.0911 12.1883 46.0862 12.1986C46.0801 12.2117 46.0749 12.2252 46.0693 12.2385C46.0647 12.2495 46.0598 12.2604 46.0556 12.2717C46.0549 12.2735 46.054 12.2754 46.0533 12.2772C46.0494 12.2883 46.0465 12.2997 46.0429 12.311C46.039 12.3232 46.0349 12.3352 46.0315 12.3478C46.0279 12.3611 46.0253 12.3745 46.0224 12.388C46.0196 12.4006 46.0165 12.413 46.0141 12.4259C46.0114 12.4417 46.0098 12.4575 46.0077 12.4732C46.0065 12.484 46.0046 12.4947 46.0037 12.5057C46.0012 12.5328 46 12.56 46 12.5872C46 12.6145 46.0012 12.6417 46.0037 12.6688C46.0046 12.6798 46.0065 12.6904 46.0078 12.7013C46.0098 12.7171 46.0114 12.7329 46.0141 12.7486C46.0165 12.7615 46.0196 12.7739 46.0224 12.7866C46.0253 12.8001 46.028 12.8134 46.0315 12.8268C46.0349 12.8393 46.039 12.8513 46.0429 12.8637C46.0471 12.8767 46.0508 12.89 46.0556 12.9028C46.0598 12.9141 46.0647 12.925 46.0693 12.936C46.0749 12.9495 46.0801 12.9628 46.0862 12.9759C46.0911 12.9862 46.0968 12.996 46.102 13.006C46.1089 13.0191 46.1155 13.0323 46.123 13.0451C46.1293 13.0556 46.1363 13.0655 46.143 13.0759C46.1505 13.0871 46.1575 13.0987 46.1655 13.1098C46.1768 13.1253 46.189 13.1398 46.2012 13.1542C46.2054 13.1593 46.2092 13.1648 46.2136 13.1697L66.2167 35.7588C66.3592 35.9196 66.5459 36 66.7326 36C66.9192 36 67.1059 35.9196 67.2484 35.7588L87.2513 13.1697C87.5362 12.848 87.5362 12.3265 87.2513 12.0047ZM57.4487 1.64746H62.869L56.761 11.7635H48.4904L57.4487 1.64746ZM68.8303 1.64746L74.9385 11.7635H58.5266L64.6346 1.64746H68.8303ZM76.0164 1.64746L84.9744 11.7635H76.7041L70.5959 1.64746H76.0164ZM75.1414 13.411L66.7325 32.5114L58.3237 13.411H75.1414ZM56.6944 13.411L64.8056 31.8352L48.4904 13.411H56.6944ZM76.7707 13.411H84.9744L68.6595 31.8352L76.7707 13.411Z" fill="#BEB698"/>
<g filter="url(#filter0_d_81_99)">
<path d="M11.8838 13.4922H14.2773V22.9272C14.2773 23.8241 14.0856 24.591 13.7021 25.228C13.3187 25.8589 12.793 26.3444 12.125 26.6846C11.457 27.0186 10.6994 27.1855 9.85205 27.1855C8.99235 27.1855 8.22852 27.0402 7.56055 26.7495C6.89876 26.4526 6.37614 26.0042 5.99268 25.4043C5.6154 24.7982 5.42676 24.0343 5.42676 23.1128H7.82031C7.82031 23.8859 8.00586 24.4395 8.37695 24.7734C8.75423 25.1012 9.24593 25.2651 9.85205 25.2651C10.2541 25.2651 10.6066 25.1755 10.9097 24.9961C11.2127 24.8105 11.4508 24.5446 11.624 24.1982C11.7972 23.8519 11.8838 23.4282 11.8838 22.9272V13.4922ZM28.242 27H21.1077V25.0796H28.242V27ZM21.7757 27H19.3821V13.4922H21.7757V27ZM27.305 20.9883H21.1077V19.0957H27.305V20.9883ZM28.1956 15.4219H21.1077V13.4922H28.1956V15.4219ZM38.6534 13.4922H40.1006L39.9708 16.0435L37.1041 27H35.6011L35.9908 24.1333L38.6534 13.4922ZM36.2134 24.0684L36.3712 27H34.7754L31.6675 13.4922H34.0518L36.2134 24.0684ZM45.231 13.4922H47.6153L44.5167 27H42.9117L43.1065 24.0405L45.231 13.4922ZM43.3106 24.1704L43.6817 27H42.1788L39.3585 16.0435L39.2471 13.4922H40.6666L43.3106 24.1704ZM60.6429 27H53.5086V25.0796H60.6429V27ZM54.1766 27H51.783V13.4922H54.1766V27ZM59.7059 20.9883H53.5086V19.0957H59.7059V20.9883ZM60.5965 15.4219H53.5086V13.4922H60.5965V15.4219ZM73.4943 27H66.7218V25.0796H73.4943V27ZM67.3898 27H64.9962V13.4922H67.3898V27ZM86.2436 27H79.4711V25.0796H86.2436V27ZM80.1391 27H77.7455V13.4922H80.1391V27ZM99.3547 27H92.2204V25.0796H99.3547V27ZM92.8884 27H90.4948V13.4922H92.8884V27ZM98.4177 20.9883H92.2204V19.0957H98.4177V20.9883ZM99.3083 15.4219H92.2204V13.4922H99.3083V15.4219ZM108.504 13.4922C109.537 13.4922 110.419 13.6468 111.148 13.9561C111.878 14.2653 112.435 14.723 112.818 15.3291C113.208 15.9352 113.403 16.6805 113.403 17.5649C113.403 18.2453 113.279 18.8421 113.032 19.3555C112.784 19.8688 112.432 20.3018 111.974 20.6543C111.523 21.0007 110.988 21.2697 110.369 21.4614L109.645 21.8325H105.369L105.35 19.9121H108.523C109.073 19.9121 109.531 19.8162 109.896 19.6245C110.267 19.4328 110.542 19.1699 110.722 18.8359C110.907 18.502 111 18.1216 111 17.6948C111 17.0021 110.799 16.4517 110.397 16.0435C110.001 15.6291 109.37 15.4219 108.504 15.4219H106.102V27H103.708V13.4922H108.504ZM108.226 20.9419L110.74 20.9326L113.941 26.8794V27H111.38L108.226 20.9419ZM121.959 19.8564L125.048 13.4922H127.692L123.165 22.0366V27H120.753V22.0366L116.225 13.4922H118.879L121.959 19.8564Z" fill="white"/>
</g>
<defs>
<filter id="filter0_d_81_99" x="0.426758" y="8.49219" width="140.265" height="31.6934" filterUnits="userSpaceOnUse" color-interpolation-filters="sRGB">
<feFlood flood-opacity="0" result="BackgroundImageFix"/>
<feColorMatrix in="SourceAlpha" type="matrix" values="0 0 0 0 0 0 0 0 0 0 0 0 0 0 0 0 0 0 127 0" result="hardAlpha"/>
<feOffset dx="4" dy="4"/>
<feGaussianBlur stdDeviation="4.5"/>
<feComposite in2="hardAlpha" operator="out"/>
<feColorMatrix type="matrix" values="0 0 0 0 0 0 0 0 0 0 0 0 0 0 0 0 0 0 1 0"/>
<feBlend mode="normal" in2="BackgroundImageFix" result="effect1_dropShadow_81_99"/>
<feBlend mode="normal" in="SourceGraphic" in2="effect1_dropShadow_81_99" result="shape"/>
</filter>
</defs>
</svg>
