<svg width="48" height="30" viewBox="0 0 48 30" fill="none" xmlns="http://www.w3.org/2000/svg">
<path d="M44.4022 0H3.36845C1.51109 0 0 1.47743 0 3.29341V26.7066C0 28.5226 1.51109 30 3.36845 30H44.4022C46.2595 30 47.7707 28.5226 47.7707 26.7066V3.29341C47.7707 1.47743 46.2595 0 44.4022 0Z" fill="white"/>
<path d="M10.3995 10.0929C9.8884 9.74153 9.22147 9.56543 8.39871 9.56543H5.21341C4.96119 9.56543 4.82184 9.69157 4.79537 9.94356L3.50138 18.0662C3.48793 18.1459 3.50789 18.2189 3.56107 18.2852C3.61395 18.3517 3.68046 18.3847 3.76011 18.3847H5.27311C5.53848 18.3847 5.68434 18.2589 5.71111 18.0065L6.0694 15.8168C6.08248 15.7106 6.12916 15.6243 6.20881 15.5579C6.2884 15.4916 6.38795 15.4482 6.5074 15.4283C6.62685 15.4086 6.73949 15.3986 6.84586 15.3986C6.95192 15.3986 7.07794 15.4053 7.22417 15.4185C7.37002 15.4318 7.463 15.4383 7.50286 15.4383C8.64418 15.4383 9.54002 15.1167 10.1905 14.4728C10.8406 13.8292 11.166 12.9367 11.166 11.7951C11.166 11.0122 10.9103 10.4448 10.3995 10.0929ZM8.75712 12.5318C8.69055 12.9964 8.51822 13.3015 8.23952 13.4475C7.96076 13.5938 7.56262 13.6664 7.04508 13.6664L6.38808 13.6864L6.72659 11.5562C6.753 11.4103 6.83922 11.3373 6.98533 11.3373H7.3637C7.89432 11.3373 8.27944 11.4138 8.51834 11.5661C8.75712 11.7189 8.83677 12.0409 8.75712 12.5318Z" fill="#003087"/>
<path d="M44.0143 9.56543H42.5413C42.3949 9.56543 42.3087 9.63845 42.2825 9.78443L40.9883 18.0662L40.9684 18.106C40.9684 18.1727 40.995 18.2354 41.0482 18.2951C41.101 18.3548 41.1676 18.3847 41.2471 18.3847H42.5612C42.813 18.3847 42.9524 18.2588 42.9793 18.0065L44.2733 9.8639V9.84413C44.2732 9.65835 44.1867 9.56543 44.0143 9.56543Z" fill="#009CDE"/>
<path d="M26.2164 12.7704C26.2164 12.7042 26.1897 12.641 26.137 12.5814C26.0837 12.5217 26.0239 12.4917 25.9578 12.4917H24.4248C24.2785 12.4917 24.1591 12.5584 24.0665 12.6907L21.9562 15.7966L21.0803 12.8103C21.0137 12.5981 20.8678 12.4917 20.6423 12.4917H19.1491C19.0825 12.4917 19.0228 12.5216 18.97 12.5814C18.9168 12.641 18.8904 12.7043 18.8904 12.7704C18.8904 12.7972 19.0198 13.1885 19.2785 13.945C19.5373 14.7016 19.816 15.5179 20.1147 16.3939C20.4134 17.2698 20.5691 17.7345 20.5825 17.7873C19.4941 19.2739 18.9501 20.0702 18.9501 20.1762C18.9501 20.3489 19.0363 20.4351 19.2089 20.4351H20.7418C20.8878 20.4351 21.0072 20.3689 21.1002 20.2361L26.1768 12.9097C26.2032 12.8833 26.2164 12.8371 26.2164 12.7704Z" fill="#003087"/>
<path d="M40.4906 12.4917H38.9775C38.7916 12.4917 38.6791 12.7107 38.6393 13.1487C38.2938 12.6181 37.6638 12.3523 36.7479 12.3523C35.7923 12.3523 34.9792 12.7107 34.3091 13.4274C33.6388 14.1442 33.3038 14.9871 33.3038 15.9558C33.3038 16.739 33.5327 17.3627 33.9905 17.8271C34.4484 18.2919 35.0622 18.5239 35.8322 18.5239C36.217 18.5239 36.6085 18.4441 37.0067 18.285C37.4049 18.1258 37.7165 17.9135 37.9425 17.648C37.9425 17.6613 37.929 17.7209 37.9026 17.827C37.8759 17.9334 37.8628 18.0132 37.8628 18.0659C37.8628 18.2786 37.9488 18.3844 38.1216 18.3844H39.4954C39.7472 18.3844 39.8934 18.2586 39.9332 18.0062L40.7495 12.8103C40.7626 12.7306 40.7427 12.6577 40.6897 12.5913C40.6365 12.525 40.5703 12.4917 40.4906 12.4917ZM37.8926 16.4137C37.5542 16.7455 37.1461 16.9113 36.6683 16.9113C36.2833 16.9113 35.9717 16.8053 35.7326 16.5928C35.4937 16.3808 35.3742 16.0888 35.3742 15.7169C35.3742 15.2261 35.5401 14.8111 35.872 14.4726C36.2034 14.1342 36.6152 13.965 37.1063 13.965C37.4776 13.965 37.7862 14.0745 38.032 14.2934C38.2773 14.5124 38.4004 14.8145 38.4004 15.1994C38.4003 15.6771 38.231 16.082 37.8926 16.4137Z" fill="#009CDE"/>
<path d="M17.875 12.4917H16.362C16.1759 12.4917 16.0634 12.7107 16.0235 13.1487C15.6652 12.6181 15.0347 12.3523 14.1322 12.3523C13.1766 12.3523 12.3636 12.7107 11.6934 13.4274C11.0231 14.1442 10.6881 14.9871 10.6881 15.9558C10.6881 16.739 10.9171 17.3627 11.375 17.8271C11.8329 18.2919 12.4466 18.5239 13.2165 18.5239C13.5879 18.5239 13.973 18.4441 14.3711 18.285C14.7693 18.1258 15.0878 17.9135 15.3267 17.648C15.2735 17.8072 15.2471 17.9466 15.2471 18.0659C15.2471 18.2786 15.3333 18.3844 15.5058 18.3844H16.8795C17.1315 18.3844 17.2776 18.2586 17.3175 18.0062L18.1337 12.8103C18.1468 12.7306 18.1269 12.6577 18.074 12.5913C18.0209 12.525 17.9546 12.4917 17.875 12.4917ZM15.277 16.4235C14.9385 16.7491 14.5235 16.9113 14.0328 16.9113C13.6476 16.9113 13.3391 16.8053 13.107 16.5928C12.8746 16.3808 12.7586 16.0888 12.7586 15.7169C12.7586 15.2261 12.9244 14.8111 13.2563 14.4726C13.5879 14.1342 13.9994 13.965 14.4906 13.965C14.862 13.965 15.1706 14.0745 15.4164 14.2934C15.6617 14.5124 15.7847 14.8145 15.7847 15.1994C15.7847 15.6904 15.6154 16.0987 15.277 16.4235Z" fill="#003087"/>
<path d="M33.0151 10.0929C32.5041 9.74153 31.8373 9.56543 31.0144 9.56543H27.849C27.5834 9.56543 27.4373 9.69157 27.411 9.94356L26.117 18.0661C26.1035 18.1459 26.1234 18.2188 26.1767 18.2852C26.2294 18.3516 26.2961 18.3847 26.3757 18.3847H28.0081C28.1673 18.3847 28.2735 18.2985 28.3267 18.1259L28.6851 15.8167C28.6982 15.7106 28.7447 15.6243 28.8244 15.5578C28.9041 15.4915 29.0035 15.4481 29.1231 15.4282C29.2425 15.4085 29.3551 15.3986 29.4615 15.3986C29.5676 15.3986 29.6936 15.4053 29.8397 15.4185C29.9856 15.4317 30.0788 15.4382 30.1183 15.4382C31.2598 15.4382 32.1556 15.1166 32.806 14.4727C33.4563 13.8291 33.7815 12.9366 33.7815 11.7951C33.7816 11.0122 33.5259 10.4448 33.0151 10.0929ZM30.9745 13.3679C30.6825 13.5669 30.2445 13.6664 29.6606 13.6664L29.0235 13.6864L29.362 11.5562C29.3883 11.4103 29.4745 11.3373 29.6208 11.3373H29.979C30.2709 11.3373 30.5032 11.3505 30.676 11.377C30.8483 11.4038 31.0144 11.4865 31.1736 11.6258C31.333 11.7652 31.4125 11.9677 31.4125 12.2331C31.4125 12.7905 31.2664 13.1687 30.9745 13.3679Z" fill="#009CDE"/>
</svg>
