<svg width="39" height="30" viewBox="0 0 39 30" fill="none" xmlns="http://www.w3.org/2000/svg">
<path d="M11.6896 29.9146V27.9296C11.6896 27.1802 11.2087 26.6762 10.4434 26.6697C10.0427 26.6633 9.62113 26.7892 9.32942 27.2307C9.11064 26.8797 8.76844 26.6697 8.28198 26.6697C8.09973 26.6606 7.91825 26.6992 7.75548 26.7817C7.59272 26.8642 7.45431 26.9878 7.35395 27.1402V26.7491H6.66394V29.9186H7.36036V28.158C7.36036 27.6074 7.6657 27.3157 8.13613 27.3157C8.59373 27.3157 8.82614 27.6138 8.82614 28.1507V29.9138H9.52256V28.158C9.52256 27.6074 9.84312 27.3157 10.2983 27.3157C10.7687 27.3157 10.9947 27.6138 10.9947 28.1507V29.9138L11.6896 29.9146ZM15.5748 28.3303V26.7459H14.8848V27.1281C14.666 26.8428 14.3342 26.6641 13.8838 26.6641C12.9951 26.6641 12.2994 27.3606 12.2994 28.3287C12.2994 29.2968 12.9959 29.9932 13.8838 29.9932C14.335 29.9932 14.666 29.8145 14.8848 29.5292V29.9138H15.5748V28.3303ZM13.0103 28.3303C13.0103 27.7733 13.3749 27.3157 13.972 27.3157C14.5426 27.3157 14.9264 27.7532 14.9264 28.3303C14.9264 28.9073 14.5418 29.3448 13.972 29.3448C13.3733 29.3448 13.0087 28.8872 13.0087 28.3303H13.0103ZM30.3303 26.6625C30.5632 26.6602 30.7944 26.7035 31.0107 26.79C31.2122 26.8705 31.396 26.9897 31.5516 27.141C31.705 27.2913 31.8265 27.4709 31.9091 27.6691C32.081 28.0936 32.081 28.5685 31.9091 28.993C31.8265 29.1912 31.705 29.3708 31.5516 29.5211C31.396 29.6724 31.2122 29.7917 31.0107 29.8722C30.5726 30.0427 30.0864 30.0427 29.6483 29.8722C29.4471 29.7919 29.2638 29.6726 29.109 29.5211C28.9566 29.3704 28.8356 29.1909 28.7531 28.993C28.5811 28.5685 28.5811 28.0936 28.7531 27.6691C28.8357 27.4713 28.9566 27.2918 29.109 27.141C29.2638 26.9895 29.4471 26.8702 29.6483 26.79C29.8651 26.7033 30.0968 26.66 30.3303 26.6625ZM30.3303 27.3149C30.1955 27.3137 30.0618 27.339 29.9368 27.3894C29.819 27.4367 29.7121 27.5076 29.6227 27.5978C29.5327 27.6898 29.4618 27.7987 29.4143 27.9183C29.3129 28.1836 29.3129 28.4769 29.4143 28.7422C29.4618 28.8618 29.5326 28.9708 29.6227 29.0627C29.7121 29.1529 29.819 29.2238 29.9368 29.2711C30.19 29.3704 30.4714 29.3704 30.7246 29.2711C30.8427 29.2235 30.9501 29.1527 31.0403 29.0627C31.1311 28.9711 31.2025 28.862 31.2503 28.7422C31.3517 28.4769 31.3517 28.1836 31.2503 27.9183C31.2025 27.7985 31.1311 27.6895 31.0403 27.5978C30.9501 27.5079 30.8427 27.437 30.7246 27.3894C30.5994 27.3387 30.4654 27.3131 30.3303 27.3141V27.3149ZM19.327 28.3303C19.3206 27.3421 18.7107 26.6657 17.8219 26.6657C16.8939 26.6657 16.244 27.3421 16.244 28.3303C16.244 29.3384 16.9203 29.9948 17.8684 29.9948C18.3493 29.9948 18.7836 29.8754 19.1683 29.5508L18.8301 29.0403C18.5683 29.2502 18.244 29.367 17.9085 29.3721C17.4645 29.3721 17.0598 29.1669 16.9604 28.5963H19.3142C19.319 28.509 19.327 28.4232 19.327 28.3303ZM16.9668 28.0522C17.0398 27.5946 17.3178 27.2828 17.8091 27.2828C18.2531 27.2828 18.5384 27.5609 18.6105 28.0522H16.9668ZM22.2313 27.5553C21.9302 27.3818 21.5898 27.2881 21.2423 27.2828C20.8641 27.2828 20.6389 27.4223 20.6389 27.6539C20.6389 27.8662 20.8793 27.9255 21.1758 27.9656L21.5004 28.0121C22.1904 28.1115 22.6079 28.4032 22.6079 28.9602C22.6079 29.5636 22.0774 29.9948 21.1654 29.9948C20.6485 29.9948 20.1709 29.8617 19.7926 29.5837L20.1172 29.0467C20.4215 29.2725 20.793 29.3894 21.1718 29.3785C21.6422 29.3785 21.8931 29.2391 21.8931 28.9938C21.8931 28.8151 21.7144 28.7157 21.3361 28.662L21.0115 28.6156C20.3023 28.5162 19.9176 28.198 19.9176 27.6803C19.9176 27.0504 20.4345 26.6657 21.2367 26.6657C21.7408 26.6657 22.1984 26.7787 22.5294 26.9975L22.2313 27.5553ZM25.5451 27.3766H24.4175V28.8111C24.4175 29.1317 24.5305 29.3416 24.8751 29.3416C25.0902 29.3346 25.3001 29.2731 25.485 29.1629L25.6837 29.7528C25.4251 29.914 25.1262 29.999 24.8214 29.998C24.0056 29.998 23.7211 29.5604 23.7211 28.8239V27.3814H23.08V26.7515H23.7211V25.7898H24.4175V26.7515H25.5443L25.5451 27.3766ZM27.9317 26.6673C28.0989 26.6681 28.2648 26.6974 28.4221 26.7539L28.2098 27.4038C28.0727 27.349 27.9262 27.3218 27.7786 27.3237C27.3274 27.3237 27.1022 27.6154 27.1022 28.1395V29.9162H26.413V26.7459H27.0926V27.1281C27.1772 26.9828 27.2994 26.863 27.4464 26.7814C27.5933 26.6997 27.7596 26.6592 27.9277 26.6641L27.9317 26.6673Z" fill="black"/>
<path d="M14.1058 2.55615H24.5642V21.35H14.1058V2.55615Z" fill="#7673C0"/>
<path d="M14.7702 11.9526C14.7688 10.1423 15.1794 8.35543 15.9708 6.72731C16.7622 5.09919 17.9138 3.6725 19.3382 2.55529C17.575 1.16941 15.4574 0.307561 13.2276 0.0682496C10.9977 -0.171062 8.74553 0.22182 6.7284 1.20199C4.71127 2.18216 3.01061 3.71008 1.82079 5.61109C0.63097 7.51211 0 9.70953 0 11.9522C0 14.1949 0.63097 16.3923 1.82079 18.2933C3.01061 20.1943 4.71127 21.7222 6.7284 22.7024C8.74553 23.6826 10.9977 24.0754 13.2276 23.8361C15.4574 23.5968 17.575 22.735 19.3382 21.3491C17.9139 20.232 16.7624 18.8054 15.971 17.1774C15.1795 15.5495 14.7689 13.7627 14.7702 11.9526Z" fill="#EB001B"/>
<path d="M38.6729 11.9526C38.673 14.1952 38.042 16.3927 36.8523 18.2937C35.6625 20.1947 33.9618 21.7227 31.9447 22.7029C29.9276 23.6831 27.6755 24.076 25.4456 23.8368C23.2157 23.5975 21.0982 22.7357 19.335 21.3499C20.7576 20.2313 21.9076 18.8043 22.6985 17.1766C23.4893 15.5488 23.9002 13.7627 23.9002 11.953C23.9002 10.1433 23.4893 8.35719 22.6985 6.72942C21.9076 5.10164 20.7576 3.67466 19.335 2.55609C21.0981 1.17029 23.2156 0.308507 25.4454 0.069218C27.6752 -0.170071 29.9273 0.222791 31.9444 1.20291C33.9615 2.18302 35.6621 3.71084 36.8519 5.61176C38.0418 7.51268 38.6728 9.71 38.6729 11.9526Z" fill="#00A1DF"/>
</svg>
