<svg width="39" height="30" viewBox="0 0 39 30" fill="none" xmlns="http://www.w3.org/2000/svg">
<path d="M7.02581 29.931V27.9379C7.02581 27.1735 6.5606 26.6754 5.79703 26.6754C5.39599 26.6754 4.96688 26.8085 4.6677 27.2368C4.4351 26.8711 4.10625 26.6754 3.60495 26.6754C3.41857 26.6673 3.2331 26.7056 3.06513 26.7868C2.89716 26.868 2.75194 26.9895 2.64246 27.1406V26.7396H2.01123V29.9286H2.64246V28.1039C2.64246 27.5424 2.97452 27.2737 3.43973 27.2737C3.90493 27.2737 4.17042 27.5729 4.17042 28.1039V29.931H4.80165V28.1039C4.80165 27.5424 5.13371 27.2737 5.59891 27.2737C6.06412 27.2737 6.3296 27.5729 6.3296 28.1039V29.931H7.02581ZM17.3902 26.7748H16.2272V25.8124H15.5976V26.7748H14.9335V27.3363H15.5976V28.8346C15.5976 29.5653 15.8631 29.9976 16.6603 29.9976C16.9624 29.9913 17.2583 29.9114 17.5226 29.765L17.3229 29.2035C17.1436 29.3155 16.9358 29.3732 16.7245 29.3696C16.3924 29.3696 16.2264 29.1698 16.2264 28.8378V27.3106H17.3894V26.7789L17.3902 26.7748ZM23.3031 26.6754C23.1312 26.6716 22.9612 26.7124 22.8098 26.794C22.6584 26.8755 22.5307 26.9949 22.4393 27.1406V26.7396H21.8081V29.9286H22.4393V28.1376C22.4393 27.6058 22.7048 27.2737 23.1371 27.2737C23.283 27.2797 23.4277 27.302 23.5686 27.3403L23.7683 26.742C23.616 26.7036 23.4601 26.6812 23.3031 26.6754ZM14.3672 27.0074C14.0351 26.7748 13.5699 26.6754 13.0719 26.6754C12.2746 26.6754 11.7765 27.0411 11.7765 27.6724C11.7765 28.2041 12.1422 28.5025 12.8392 28.6028L13.1713 28.6357C13.5371 28.7022 13.7697 28.8354 13.7697 29.0014C13.7697 29.234 13.5042 29.4024 13.0053 29.4024C12.6243 29.4103 12.2512 29.2937 11.9425 29.0704L11.6105 29.5685C12.0757 29.9005 12.6403 29.9695 12.974 29.9695C13.9044 29.9695 14.4025 29.538 14.4025 28.9396C14.4025 28.3782 14.0015 28.1095 13.3061 28.0092L12.974 27.9764C12.6748 27.9435 12.4125 27.8432 12.4125 27.6443C12.4125 27.4117 12.678 27.2433 13.0438 27.2433C13.4448 27.2433 13.841 27.4093 14.0408 27.5087L14.3672 27.0074ZM24.0009 28.3365C24.0009 29.299 24.6322 29.9976 25.662 29.9976C26.1272 29.9976 26.4593 29.8981 26.7914 29.6318L26.4593 29.1337C26.2242 29.3242 25.9317 29.4296 25.6291 29.4329C25.0677 29.4329 24.6322 29.0014 24.6322 28.3702C24.6322 27.7389 25.0621 27.3106 25.6291 27.3106C25.9317 27.314 26.2242 27.4194 26.4593 27.6098L26.7914 27.1117C26.4593 26.8462 26.1272 26.746 25.662 26.746C24.665 26.6794 24.0009 27.3772 24.0009 28.3405V28.3365ZM19.5494 26.6754C18.619 26.6754 17.9878 27.3395 17.9878 28.3365C17.9878 29.3335 18.6519 29.9976 19.6152 29.9976C20.0838 30.0075 20.5415 29.855 20.9105 29.5661L20.5785 29.1009C20.3116 29.3077 19.9856 29.424 19.6481 29.4329C19.2166 29.4329 18.7513 29.1674 18.6856 28.6028H21.0445V28.3373C21.0445 27.3403 20.4461 26.6762 19.5494 26.6762V26.6754ZM19.5165 27.2737C19.9817 27.2737 20.3138 27.5729 20.3467 28.071H18.6198C18.7193 27.6058 19.0208 27.2737 19.5165 27.2737ZM10.9127 28.3365V26.742H10.2814V27.143C10.0488 26.8438 9.71998 26.6778 9.25157 26.6778C8.35485 26.6778 7.68992 27.3756 7.68992 28.3389C7.68992 29.3022 8.35404 30 9.25157 30C9.71677 30 10.0488 29.834 10.2814 29.5348V29.9358H10.9127V28.3365ZM8.35484 28.3365C8.35484 27.7381 8.72059 27.2737 9.35183 27.2737C9.95017 27.2737 10.3143 27.7389 10.3143 28.3365C10.3143 28.9677 9.91328 29.3992 9.35183 29.3992C8.72059 29.4321 8.35484 28.934 8.35484 28.3365ZM32.9048 26.6754C32.7328 26.6716 32.5629 26.7124 32.4114 26.794C32.26 26.8755 32.1324 26.9949 32.0409 27.1406V26.7396H31.4097V29.9286H32.0401V28.1376C32.0401 27.6058 32.3056 27.2737 32.7379 27.2737C32.8838 27.2797 33.0286 27.302 33.1695 27.3403L33.3692 26.742C33.2169 26.7036 33.0609 26.6812 32.904 26.6754H32.9048ZM30.4464 28.3365V26.742H29.8152V27.143C29.5826 26.8438 29.2537 26.6778 28.7853 26.6778C27.8886 26.6778 27.2237 27.3756 27.2237 28.3389C27.2237 29.3022 27.8878 30 28.7853 30C29.2505 30 29.5826 29.834 29.8152 29.5348V29.9358H30.4464V28.3365ZM27.8886 28.3365C27.8886 27.7381 28.2543 27.2737 28.8856 27.2737C29.4839 27.2737 29.8481 27.7389 29.8481 28.3365C29.8481 28.9677 29.447 29.3992 28.8856 29.3992C28.2543 29.4321 27.8886 28.934 27.8886 28.3365ZM36.8582 28.3365V25.4795H36.227V27.1406C35.9944 26.8414 35.6655 26.6754 35.1971 26.6754C34.3004 26.6754 33.6355 27.3732 33.6355 28.3365C33.6355 29.2998 34.2996 29.9976 35.1971 29.9976C35.6623 29.9976 35.9944 29.8316 36.227 29.5324V29.9334H36.8582V28.3365ZM34.3004 28.3365C34.3004 27.7381 34.6661 27.2737 35.2974 27.2737C35.8957 27.2737 36.2598 27.7389 36.2598 28.3365C36.2598 28.9677 35.8588 29.3992 35.2974 29.3992C34.6653 29.4329 34.2996 28.9348 34.2996 28.3365H34.3004Z" fill="black"/>
<path d="M13.6365 2.55786H25.1639V21.3601H13.6365V2.55786Z" fill="#FF5F00"/>
<path d="M14.7995 11.959C14.7999 10.1502 15.2095 8.3649 15.9976 6.73684C16.7858 5.10879 17.932 3.68012 19.3505 2.55782C17.5864 1.17081 15.4676 0.308138 13.2364 0.068429C11.0051 -0.17128 8.75147 0.221645 6.733 1.20229C4.71452 2.18293 3.01269 3.71172 1.82205 5.61389C0.631409 7.51607 0 9.71487 0 11.959C0 14.203 0.631409 16.4018 1.82205 18.304C3.01269 20.2062 4.71452 21.735 6.733 22.7156C8.75147 23.6963 11.0051 24.0892 13.2364 23.8495C15.4676 23.6098 17.5864 22.7471 19.3505 21.3601C17.932 20.2378 16.7858 18.8091 15.9976 17.1811C15.2095 15.553 14.7999 13.7677 14.7995 11.959Z" fill="#EB001B"/>
<path d="M38.7182 11.959C38.7198 14.2014 38.0903 16.3991 36.9016 18.3005C35.7129 20.202 34.0131 21.7305 31.9965 22.7113C29.9799 23.6921 27.7279 24.0855 25.4983 23.8465C23.2686 23.6076 21.1512 22.7459 19.3882 21.3601C20.807 20.2381 21.9535 18.8095 22.7417 17.1814C23.5299 15.5533 23.9393 13.7679 23.9393 11.959C23.9393 10.1501 23.5299 8.36472 22.7417 6.7366C21.9535 5.10848 20.807 3.67987 19.3882 2.55787C21.1512 1.17205 23.2686 0.310393 25.4983 0.0714436C27.7279 -0.167506 29.9799 0.225902 31.9965 1.20667C34.0131 2.18744 35.7129 3.71597 36.9016 5.61744C38.0903 7.51891 38.7198 9.71655 38.7182 11.959Z" fill="#F79E1B"/>
</svg>
