<svg width="47" height="30" viewBox="0 0 47 30" fill="none" xmlns="http://www.w3.org/2000/svg">
<path d="M2.4 0H44.4C45.7255 0 46.8 1.07454 46.8 2.4V27.6C46.8 28.9255 45.7255 30 44.4 30H2.4C1.07454 30 0 28.9255 0 27.6V2.4C0 1.07454 1.07454 0 2.4 0Z" fill="#0E4595"/>
<path d="M17.592 20.9237L19.5936 9.17811H22.7952L20.7921 20.9237H17.592ZM32.3586 9.43131C31.7244 9.19335 30.7304 8.93799 29.4893 8.93799C26.3258 8.93799 24.0974 10.531 24.0785 12.8142C24.0605 14.502 25.6693 15.4435 26.8836 16.0053C28.1298 16.581 28.5487 16.9482 28.5428 17.4623C28.535 18.2496 27.5477 18.6093 26.6275 18.6093C25.3461 18.6093 24.6653 18.4312 23.6139 17.9927L23.2013 17.8061L22.752 20.4355C23.4998 20.7633 24.8826 21.0474 26.3183 21.0621C29.6837 21.0621 31.8683 19.4873 31.8932 17.0491C31.9052 15.713 31.0523 14.6962 29.2052 13.8579C28.0862 13.3146 27.4008 12.9519 27.4081 12.4018C27.4081 11.9136 27.9882 11.3914 29.2415 11.3914C30.2885 11.3752 31.0469 11.6035 31.6378 11.8414L31.9247 11.977L32.3586 9.43131ZM40.5972 9.17793H38.1233C37.3569 9.17793 36.7833 9.38715 36.4468 10.152L31.6922 20.916H35.054C35.054 20.916 35.6036 19.4686 35.7279 19.1509C36.0954 19.1509 39.3612 19.1559 39.8282 19.1559C39.924 19.5671 40.2176 20.916 40.2176 20.916H43.1885L40.5972 9.17757V9.17793ZM36.6721 16.7625C36.9368 16.0858 37.9477 13.4791 37.9477 13.4791C37.9287 13.5105 38.2104 12.7991 38.3721 12.3581L38.5884 13.3708C38.5884 13.3708 39.2016 16.1746 39.3297 16.7625H36.6721ZM14.8741 9.17793L11.7397 17.1879L11.4057 15.5601C10.8222 13.6837 9.00418 11.6508 6.9718 10.633L9.83776 20.905L13.2251 20.9012L18.2654 9.17781H14.8741" fill="white"/>
<path d="M8.81526 9.17773H3.6528L3.61194 9.42211C7.62822 10.3944 10.2857 12.7439 11.3891 15.5667L10.2665 10.1691C10.0727 9.42541 9.51072 9.20347 8.81538 9.17749" fill="#F2AE14"/>
</svg>
